<svg width="30" height="30" viewBox="0 0 30 30" fill="none" xmlns="http://www.w3.org/2000/svg">
<path fill-rule="evenodd" clip-rule="evenodd" d="M11.25 6.5625C11.25 6.04473 11.6697 5.625 12.1875 5.625L27.1875 5.625C27.7053 5.625 28.125 6.04473 28.125 6.5625V23.4375C28.125 23.9553 27.7053 24.375 27.1875 24.375H12.1875C11.6697 24.375 11.25 23.9553 11.25 23.4375L11.25 19.6875C11.25 19.1697 10.8303 18.75 10.3125 18.75C9.79473 18.75 9.375 19.1697 9.375 19.6875V23.4375C9.375 24.9908 10.6342 26.25 12.1875 26.25H27.1875C28.7408 26.25 30 24.9908 30 23.4375V6.5625C30 5.0092 28.7408 3.75 27.1875 3.75L12.1875 3.75C10.6342 3.75 9.375 5.0092 9.375 6.5625V10.3125C9.375 10.8303 9.79473 11.25 10.3125 11.25C10.8303 11.25 11.25 10.8303 11.25 10.3125V6.5625Z" fill="black"/>
<path fill-rule="evenodd" clip-rule="evenodd" d="M22.2254 15.6629C22.5915 15.2968 22.5915 14.7032 22.2254 14.3371L16.6004 8.71209C16.2343 8.34597 15.6407 8.34597 15.2746 8.71209C14.9085 9.0782 14.9085 9.6718 15.2746 10.0379L19.2992 14.0625H2.8125C2.29473 14.0625 1.875 14.4822 1.875 15C1.875 15.5178 2.29473 15.9375 2.8125 15.9375H19.2992L15.2746 19.9621C14.9085 20.3282 14.9085 20.9218 15.2746 21.2879C15.6407 21.654 16.2343 21.654 16.6004 21.2879L22.2254 15.6629Z" fill="black"/>
</svg>
