<svg width="29" height="29" viewBox="0 0 29 29" fill="none" xmlns="http://www.w3.org/2000/svg">
<path d="M20.4349 13.3255H15.737V8.6276C15.737 8.31611 15.6132 8.01738 15.393 7.79712C15.1727 7.57686 14.874 7.45312 14.5625 7.45312C14.251 7.45312 13.9523 7.57686 13.732 7.79712C13.5118 8.01738 13.388 8.31611 13.388 8.6276V13.3255H8.6901C8.37861 13.3255 8.07988 13.4493 7.85962 13.6695C7.63936 13.8898 7.51562 14.1885 7.51562 14.5C7.51562 14.8115 7.63936 15.1102 7.85962 15.3305C8.07988 15.5507 8.37861 15.6745 8.6901 15.6745H13.388V20.3724C13.388 20.6839 13.5118 20.9826 13.732 21.2029C13.9523 21.4231 14.251 21.5469 14.5625 21.5469C14.874 21.5469 15.1727 21.4231 15.393 21.2029C15.6132 20.9826 15.737 20.6839 15.737 20.3724V15.6745H20.4349C20.7464 15.6745 21.0451 15.5507 21.2654 15.3305C21.4856 15.1102 21.6094 14.8115 21.6094 14.5C21.6094 14.1885 21.4856 13.8898 21.2654 13.6695C21.0451 13.4493 20.7464 13.3255 20.4349 13.3255Z" fill="white"/>
</svg>
