<svg width="26" height="26" viewBox="0 0 26 26" fill="none" xmlns="http://www.w3.org/2000/svg">
<path d="M14.9429 12.6663L19.0477 8.56762C19.3142 8.26548 19.4553 7.87344 19.4425 7.47121C19.4296 7.06897 19.2637 6.68672 18.9784 6.40215C18.6931 6.11758 18.3099 5.95205 17.9066 5.9392C17.5034 5.92636 17.1104 6.06717 16.8075 6.33301L12.6985 10.4275L8.58207 6.32034C8.43463 6.17327 8.25959 6.0566 8.06695 5.97701C7.8743 5.89741 7.66783 5.85645 7.45932 5.85645C7.2508 5.85645 7.04433 5.89741 6.85169 5.97701C6.65905 6.0566 6.48401 6.17327 6.33657 6.32034C6.18912 6.46741 6.07217 6.64202 5.99237 6.83418C5.91258 7.02634 5.87151 7.23229 5.87151 7.44029C5.87151 7.64828 5.91258 7.85423 5.99237 8.0464C6.07217 8.23856 6.18912 8.41316 6.33657 8.56023L10.454 12.6663L6.34926 16.764C6.18828 16.9076 6.05835 17.0823 5.96743 17.2777C5.8765 17.4731 5.82649 17.6849 5.82045 17.9002C5.8144 18.1155 5.85246 18.3297 5.9323 18.5299C6.01213 18.73 6.13205 18.9117 6.28473 19.064C6.43742 19.2163 6.61964 19.336 6.82027 19.4156C7.02089 19.4952 7.23569 19.5332 7.45153 19.5272C7.66737 19.5211 7.87971 19.4713 8.07555 19.3806C8.2714 19.2899 8.44663 19.1603 8.59053 18.9997L12.6985 14.9052L16.8022 18.9997C17.0999 19.2967 17.5038 19.4636 17.9249 19.4636C18.346 19.4636 18.7499 19.2967 19.0477 18.9997C19.3455 18.7026 19.5127 18.2998 19.5127 17.8797C19.5127 17.4597 19.3455 17.0568 19.0477 16.7598L14.9429 12.6663Z" fill="white"/>
</svg>
