<?xml version="1.0" encoding="UTF-8"?>
<svg version="1.1" xmlns="http://www.w3.org/2000/svg" viewBox="0 0 367 325" width="367" height="325">
<path d="M0 0 C0.83265381 0.00523682 1.66530762 0.01047363 2.52319336 0.01586914 C3.33280518 0.0183667 4.14241699 0.02086426 4.9765625 0.0234375 C6.01159912 0.0325415 7.04663574 0.04164551 8.11303711 0.05102539 C11.39241211 0.07165039 14.67178711 0.09227539 18.05053711 0.11352539 C18.05053711 12.32352539 18.05053711 24.53352539 18.05053711 37.11352539 C31.25053711 37.11352539 44.45053711 37.11352539 58.05053711 37.11352539 C58.05053711 24.90352539 58.05053711 12.69352539 58.05053711 0.11352539 C64.65053711 0.11352539 71.25053711 0.11352539 78.05053711 0.11352539 C78.05053711 44.33352539 78.05053711 88.55352539 78.05053711 134.11352539 C91.58053711 134.11352539 105.11053711 134.11352539 119.05053711 134.11352539 C119.05053711 121.90352539 119.05053711 109.69352539 119.05053711 97.11352539 C122.16491211 97.09290039 125.27928711 97.07227539 128.48803711 97.05102539 C129.4708667 97.04192139 130.45369629 97.03281738 131.46630859 97.0234375 C132.23531494 97.02093994 133.00432129 97.01844238 133.79663086 97.01586914 C134.58739014 97.01063232 135.37814941 97.00539551 136.19287109 97 C138.05053711 97.11352539 138.05053711 97.11352539 139.05053711 98.11352539 C139.14576129 100.97444357 139.17607036 103.8111616 139.1640625 106.67236328 C139.16420853 107.5698378 139.16435455 108.46731232 139.164505 109.39198303 C139.16380553 112.37340673 139.15601152 115.35476879 139.14819336 118.33618164 C139.1463293 120.39741481 139.14490534 122.45864843 139.14390564 124.5198822 C139.14007948 129.95656549 139.13024837 135.39322225 139.11920166 140.82989502 C139.10898963 146.37300253 139.10440847 151.91611432 139.09936523 157.45922852 C139.08862619 168.34400583 139.0715486 179.22876341 139.05053711 190.11352539 C135.89204026 191.69277381 132.51402431 191.25669053 129.05053711 191.23852539 C128.31319336 191.24239258 127.57584961 191.24625977 126.81616211 191.25024414 C121.30385671 191.24018519 121.30385671 191.24018519 119.05053711 190.11352539 C119.05053711 177.24352539 119.05053711 164.37352539 119.05053711 151.11352539 C105.52053711 151.11352539 91.99053711 151.11352539 78.05053711 151.11352539 C78.38053711 164.31352539 78.71053711 177.51352539 79.05053711 191.11352539 C72.45053711 191.11352539 65.85053711 191.11352539 59.05053711 191.11352539 C58.05053711 190.11352539 58.05053711 190.11352539 57.92748928 187.86651516 C57.92887197 186.3635317 57.92887197 186.3635317 57.93028259 184.83018494 C57.92890793 183.68448532 57.92753326 182.53878571 57.92611694 181.35836792 C57.93150986 179.45621017 57.93150986 179.45621017 57.93701172 177.515625 C57.93729359 176.17559308 57.93713586 174.835561 57.93656921 173.49552917 C57.93628124 169.84693101 57.94217791 166.19836544 57.94914317 162.54977489 C57.95537677 158.74075023 57.95598051 154.9317249 57.95716858 151.12269592 C57.96028188 143.90494785 57.96849525 136.68721485 57.97851807 129.46947342 C57.98967925 121.25437282 57.99518967 113.03927152 58.0002135 104.82416523 C58.01067786 87.92060988 58.02827727 71.01706923 58.05053711 54.11352539 C56.97440659 54.27618393 55.89827606 54.43884247 54.78953552 54.60643005 C50.88291287 55.13625915 47.07966059 55.24077367 43.14819336 55.21118164 C42.42562851 55.20976669 41.70306366 55.20835175 40.95860291 55.20689392 C38.67670346 55.20134764 36.39490632 55.18880559 34.11303711 55.17602539 C32.55509583 55.17100343 30.99715299 55.16644175 29.43920898 55.16235352 C25.6429463 55.15139589 21.84675898 55.13416911 18.05053711 55.11352539 C18.05839233 56.83236938 18.05839233 56.83236938 18.06640625 58.5859375 C18.08445428 62.82193221 18.09596839 67.05792351 18.10546875 71.29394531 C18.11050942 73.13021414 18.11734188 74.96647893 18.12597656 76.80273438 C18.13805383 79.4362894 18.14376792 82.06979155 18.14819336 84.70336914 C18.15335464 85.52941147 18.15851593 86.3554538 18.16383362 87.20652771 C18.16402916 89.17588907 18.11257863 91.14514153 18.05053711 93.11352539 C16.4944696 94.6695929 14.9909634 94.24323308 12.83178711 94.24633789 C11.55754883 94.24827148 11.55754883 94.24827148 10.25756836 94.25024414 C9.36424805 94.24637695 8.47092773 94.24250977 7.55053711 94.23852539 C6.6572168 94.24239258 5.76389648 94.24625977 4.84350586 94.25024414 C3.99401367 94.24895508 3.14452148 94.24766602 2.26928711 94.24633789 C1.48489258 94.24520996 0.70049805 94.24408203 -0.10766602 94.24291992 C-1.94946289 94.11352539 -1.94946289 94.11352539 -2.94946289 93.11352539 C-3.05001402 90.25797958 -3.08561833 87.42658516 -3.07885742 84.57055664 C-3.08060974 83.67468842 -3.08236206 82.77882019 -3.08416748 81.85580444 C-3.08858736 78.87919202 -3.08564753 75.90263847 -3.08227539 72.92602539 C-3.08294839 70.86718738 -3.08391838 68.80834945 -3.08517456 66.74951172 C-3.08665172 62.42845912 -3.0844964 58.10742716 -3.07983398 53.78637695 C-3.07413669 48.23415993 -3.0774156 42.68199125 -3.08340645 37.129776 C-3.08701158 32.87658318 -3.0858737 28.6234019 -3.08327866 24.37020874 C-3.08260925 22.32237747 -3.08343827 20.27454516 -3.08575821 18.22671509 C-3.08828395 15.36994631 -3.08444525 12.51325696 -3.07885742 9.65649414 C-3.08088165 8.80139252 -3.08290588 7.94629089 -3.08499146 7.0652771 C-3.05990156 0.17819089 -3.05990156 0.17819089 0 0 Z " fill="#0090F2" transform="translate(6.949462890625,73.886474609375)"/>
<path d="M0 0 C5.94 0 11.88 0 18 0 C18.33 33.33 18.66 66.66 19 101 C21.64 99.35 24.28 97.7 27 96 C30.38689923 95.5425413 33.14768548 95.33795294 36.5 95.4375 C37.30308594 95.42654297 38.10617187 95.41558594 38.93359375 95.40429688 C45.66582495 95.48613113 50.90007411 97.32496743 56.0234375 101.74609375 C62.98440073 110.45735698 63.18013199 119.00363262 63.1875 129.8125 C63.19974609 130.74642578 63.21199219 131.68035156 63.22460938 132.64257812 C63.24289382 141.42520439 62.83878567 150.0258949 57 157 C51.13659455 162.86340545 44.82656225 165.08732787 36.5625 165.4375 C30.34270135 165.26254083 23.89661157 163.66157949 19.21875 159.36328125 C18.8165625 158.91339844 18.414375 158.46351563 18 158 C17.34 159.98 16.68 161.96 16 164 C13.52076199 164.02685095 11.0418116 164.04676547 8.5625 164.0625 C7.85544922 164.07087891 7.14839844 164.07925781 6.41992188 164.08789062 C4.61306441 164.09653588 2.80612397 164.05220011 1 164 C0 163 0 163 -0.12304783 160.33132076 C-0.12212604 159.1302245 -0.12120424 157.92912825 -0.12025452 156.69163513 C-0.12110894 156.02516167 -0.12196337 155.35868821 -0.12284368 154.67201859 C-0.12450035 152.42251366 -0.11897411 150.17308212 -0.11352539 147.92358398 C-0.11324353 146.31754559 -0.11340122 144.71150707 -0.1139679 143.10546875 C-0.11425593 138.73168933 -0.10835832 134.35793708 -0.10139394 129.984164 C-0.09516131 125.41840422 -0.09455667 120.85264387 -0.09336853 116.28688049 C-0.09025495 107.63478695 -0.08204119 98.98270597 -0.07201904 90.33061796 C-0.06085874 80.48314177 -0.05534766 70.63566499 -0.05032361 60.78818405 C-0.0398586 40.52544881 -0.02205825 20.26272564 0 0 Z M19 115 C17.45178578 119.62427142 17.77654404 124.49143963 17.75 129.3125 C17.729375 130.23740234 17.70875 131.16230469 17.6875 132.11523438 C17.65474303 137.87636599 18.23011244 141.91739079 21 147 C24.19943191 150.09944967 27.21274561 150.23093903 31.5 150.375 C35.78186374 150.25397828 38.66515414 149.90454317 42 147 C47.57565033 138.63652451 45.36591938 125.66350137 43.73046875 116.2421875 C42.91008183 113.72399449 42.06296482 112.63082256 40 111 C32.58567143 108.73451072 24.65009063 109.34990937 19 115 Z " fill="#07156D" transform="translate(224,74)"/>
<path d="M0 0 C5.61 0 11.22 0 17 0 C17.33 10.89 17.66 21.78 18 33 C20.97 30.525 20.97 30.525 24 28 C30.66939758 24.74285235 38.80682436 25.10473157 45.8125 27.1875 C50.95910438 29.15775642 54.48007078 31.78989079 57.64575195 36.39306641 C59.64581099 41.72006698 59.36891962 46.75643638 59.29296875 52.3984375 C59.28872391 53.58853424 59.28447906 54.77863098 59.28010559 56.00479126 C59.26335169 59.79509375 59.22570416 63.58485898 59.1875 67.375 C59.17244897 69.94921106 59.1587613 72.52343047 59.14648438 75.09765625 C59.1134587 81.3986436 59.0616978 87.69923079 59 94 C53.39 94 47.78 94 42 94 C41.98018066 92.6682373 41.96036133 91.33647461 41.93994141 89.96435547 C41.8637134 85.01055397 41.77502237 80.0570396 41.68261719 75.10351562 C41.64439847 72.96197184 41.60953332 70.82036543 41.578125 68.67871094 C41.53232021 65.59547583 41.47435083 62.51266929 41.4140625 59.4296875 C41.40251129 58.47633514 41.39096008 57.52298279 41.37905884 56.54074097 C41.27209935 51.69341057 41.04798941 47.49174754 39 43 C36.32344199 41.66172099 34.17565948 41.79421444 31.1875 41.75 C30.14980469 41.72421875 29.11210937 41.6984375 28.04296875 41.671875 C24.49232413 42.05474297 22.74669226 42.71828008 20 45 C17.60653508 50.2885263 17.74019922 55.30960572 17.8046875 60.9921875 C17.80893234 62.41109787 17.80893234 62.41109787 17.81326294 63.8586731 C17.82441068 66.86424694 17.84950535 69.86951702 17.875 72.875 C17.88503679 74.91926651 17.89416141 76.96353772 17.90234375 79.0078125 C17.92433233 84.00532444 17.95882491 89.0026108 18 94 C12.06 94 6.12 94 0 94 C0 62.98 0 31.96 0 0 Z " fill="#081775" transform="translate(304,74)"/>
<path d="M0 0 C4.71466707 3.83751971 7.19654908 7.29223653 8.6875 13.1875 C8.95619053 17.10339976 8.92015398 21.00620895 8.8828125 24.9296875 C8.8799826 26.05319611 8.87715271 27.17670471 8.87423706 28.33425903 C8.86307303 31.91044927 8.83797501 35.4863859 8.8125 39.0625 C8.80246533 41.49218387 8.79334033 43.92187169 8.78515625 46.3515625 C8.763146 52.2969722 8.7286418 58.24219315 8.6875 64.1875 C3.0775 64.1875 -2.5325 64.1875 -8.3125 64.1875 C-8.6425 62.8675 -8.9725 61.5475 -9.3125 60.1875 C-10.075625 60.826875 -10.83875 61.46625 -11.625 62.125 C-16.47834891 65.84966312 -21.07620968 65.43619786 -26.9375 65.5 C-27.80246094 65.52900391 -28.66742188 65.55800781 -29.55859375 65.58789062 C-36.97636681 65.66017777 -43.32853594 64.09495216 -48.75 58.8125 C-53.14449271 51.42975225 -53.42962084 43.06411886 -51.84765625 34.7421875 C-50.18313391 29.56148482 -47.69290774 27.10777182 -43.3125 24.1875 C-38.0115812 21.90649858 -33.04919644 21.82088758 -27.375 21.8125 C-26.50681641 21.78800781 -25.63863281 21.76351562 -24.74414062 21.73828125 C-18.72988168 21.7110057 -15.26176644 22.74739736 -10.3125 26.1875 C-9.9825 26.5175 -9.6525 26.8475 -9.3125 27.1875 C-8.95180128 18.96832687 -8.95180128 18.96832687 -11.3125 11.1875 C-14.79277742 10.02740753 -17.64571643 9.98333479 -21.3125 9.9375 C-22.55 9.91171875 -23.7875 9.8859375 -25.0625 9.859375 C-28.2237209 9.93078421 -28.2237209 9.93078421 -30.1875 11.390625 C-31.69418112 13.56133663 -31.69418112 13.56133663 -32.3125 18.1875 C-38.2525 18.1875 -44.1925 18.1875 -50.3125 18.1875 C-50.3125 9.9148444 -48.62397895 6.68820632 -43.125 0.875 C-31.40937341 -6.15437596 -12.01045657 -6.57175926 0 0 Z M-33.3125 37.1875 C-34.47593227 39.51436453 -34.51145988 41.03471413 -34.5625 43.625 C-34.58828125 44.40746094 -34.6140625 45.18992187 -34.640625 45.99609375 C-34.23212728 48.72427498 -33.47977539 49.5316611 -31.3125 51.1875 C-25.4200731 53.1516423 -18.06332753 53.11344406 -12.125 51.1875 C-9.25191249 49.53351158 -9.25191249 49.53351158 -8.6015625 47.34765625 C-8.09105146 44.30160705 -8.16356445 41.81633899 -8.875 38.8125 C-11.71523809 35.60179607 -15.0578695 35.26899156 -19.19921875 35 C-26.48914989 34.8507373 -26.48914989 34.8507373 -33.3125 37.1875 Z " fill="#071671" transform="translate(207.3125,103.8125)"/>
<path d="M0 0 C7.05366424 5.74135461 8.94291563 10.2809377 10.6875 19.1875 C10.6875 24.1375 10.6875 29.0875 10.6875 34.1875 C-3.8325 34.1875 -18.3525 34.1875 -33.3125 34.1875 C-32.02753217 46.53959896 -32.02753217 46.53959896 -27.3125 49.1875 C-24.60248852 49.38271269 -22.01923209 49.4663975 -19.3125 49.4375 C-18.22582031 49.44910156 -18.22582031 49.44910156 -17.1171875 49.4609375 C-13.31861507 49.44692063 -11.54412916 49.34191944 -8.3125 47.1875 C-7.6525 44.8775 -6.9925 42.5675 -6.3125 40.1875 C-0.7025 40.1875 4.9075 40.1875 10.6875 40.1875 C11.13577586 51.24497126 11.13577586 51.24497126 7.6875 56.1875 C1.91266595 62.0998301 -4.69364195 64.26477013 -12.90625 64.5859375 C-14.87499979 64.59380201 -16.84387217 64.58578206 -18.8125 64.5625 C-19.79347656 64.57410156 -20.77445313 64.58570313 -21.78515625 64.59765625 C-28.99287058 64.56886378 -35.40500816 63.66246901 -41.58203125 59.75 C-49.45648462 51.77587001 -51.21874125 41.48204722 -51.5625 30.625 C-51.45916484 20.35606859 -49.99064285 10.30592665 -42.8515625 2.61328125 C-31.628338 -8.26745048 -12.95228395 -7.08709876 0 0 Z M-30.3125 12.1875 C-32.58187807 16.47978383 -32.58187807 16.47978383 -33.3125 21.1875 C-24.7325 21.1875 -16.1525 21.1875 -7.3125 21.1875 C-7.58394616 13.89039216 -7.58394616 13.89039216 -9.6875 11.25 C-15.25298288 7.61103042 -25.46189746 7.48847879 -30.3125 12.1875 Z " fill="#081778" transform="translate(141.3125,104.8125)"/>
<path d="M0 0 C1.12535156 0.00580078 1.12535156 0.00580078 2.2734375 0.01171875 C3.02367187 0.00785156 3.77390625 0.00398437 4.546875 0 C10.14682697 0.01010822 10.14682697 0.01010822 11.2734375 1.13671875 C11.37506715 2.61942507 11.40911562 4.10684512 11.4152832 5.59301758 C11.42231766 6.54102737 11.42935211 7.48903717 11.43659973 8.46577454 C11.44076401 9.49800644 11.44492828 10.53023834 11.44921875 11.59375 C11.47241815 13.75977533 11.49653553 15.92579099 11.52148438 18.09179688 C11.55661888 21.52195689 11.58594745 24.95176196 11.59936523 28.38208008 C11.61481656 31.68224564 11.65501363 34.98136089 11.69921875 38.28125 C11.69731033 39.30740921 11.69540192 40.33356842 11.69343567 41.39082336 C11.7087141 46.94749724 11.7087141 46.94749724 14.14770508 51.78198242 C18.22474486 54.38029341 22.63568077 53.80117304 27.2734375 53.13671875 C30.70199518 51.51266511 32.55669349 50.42478045 34.40209961 47.10839844 C35.65591642 42.83228237 35.61140489 38.71285208 35.65234375 34.27734375 C35.66933823 33.33236023 35.6863327 32.38737671 35.70384216 31.41375732 C35.75684809 28.40481174 35.79723524 25.39587965 35.8359375 22.38671875 C35.87982753 19.3633432 35.92644648 16.34007559 35.97874451 13.3168335 C36.01077372 11.43723677 36.0376411 9.55754395 36.05897522 7.67779541 C36.16165349 1.24850276 36.16165349 1.24850276 37.2734375 0.13671875 C39.78479854 0.03696843 42.26247165 -0.00210308 44.7734375 0.01171875 C45.47597656 0.00785156 46.17851562 0.00398437 46.90234375 0 C52.14682372 0.01010497 52.14682372 0.01010497 53.2734375 1.13671875 C53.36761523 3.22290897 53.39086628 5.31232352 53.38696289 7.40063477 C53.38710892 8.05427002 53.38725494 8.70790527 53.3874054 9.38134766 C53.38670633 11.55114003 53.37891428 13.72084754 53.37109375 15.890625 C53.36922955 17.39135186 53.36780566 18.89207932 53.36680603 20.39280701 C53.36298102 24.34990101 53.3531509 28.30695853 53.34210205 32.26403809 C53.33188756 36.29906724 53.32730833 40.33410228 53.32226562 44.36914062 C53.3115286 52.29168531 53.29393195 60.21419329 53.2734375 68.13671875 C47.9934375 68.13671875 42.7134375 68.13671875 37.2734375 68.13671875 C36.6134375 66.15671875 35.9534375 64.17671875 35.2734375 62.13671875 C34.68175781 62.55824219 34.09007812 62.97976562 33.48046875 63.4140625 C32.69027344 63.96191406 31.90007812 64.50976562 31.0859375 65.07421875 C30.30863281 65.61949219 29.53132813 66.16476563 28.73046875 66.7265625 C22.69054201 70.19303874 14.98659962 70.00660278 8.35546875 68.453125 C2.28364008 66.47834671 -1.42687763 64.67167401 -4.7265625 59.13671875 C-6.83680639 52.51456581 -7.00439094 46.36880191 -6.95703125 39.453125 C-6.95657303 38.35701401 -6.95611481 37.26090302 -6.9556427 36.13157654 C-6.95263577 33.82964995 -6.94479654 31.52772511 -6.93237305 29.22583008 C-6.91399536 25.68628829 -6.9118644 22.14700663 -6.91210938 18.60742188 C-6.90719822 16.3684873 -6.90137167 14.12955451 -6.89453125 11.890625 C-6.89341843 10.82719376 -6.8923056 9.76376251 -6.89115906 8.66810608 C-6.88477921 7.69296555 -6.87839935 6.71782501 -6.87182617 5.71313477 C-6.86801437 4.85124039 -6.86420258 3.98934601 -6.86027527 3.10133362 C-6.57319381 -1.1166966 -3.53621309 0.00638306 0 0 Z M36.2734375 59.13671875 C37.2734375 61.13671875 37.2734375 61.13671875 37.2734375 61.13671875 Z " fill="#07166F" transform="translate(162.7265625,169.86328125)"/>
<path d="M0 0 C5.61 0 11.22 0 17 0 C18.30475618 2.60951236 18.11301572 4.52701285 18.09765625 7.4453125 C18.09515869 8.41484863 18.09266113 9.38438477 18.09008789 10.38330078 C18.08098389 11.61806152 18.07187988 12.85282227 18.0625 14.125 C18.041875 18.04375 18.02125 21.9625 18 26 C25.92 26.33 33.84 26.66 42 27 C42 31.95 42 36.9 42 42 C34.08 42.33 26.16 42.66 18 43 C18 55.21 18 67.42 18 80 C24.4202491 80.36893239 24.4202491 80.36893239 28 79 C28.04898438 78.21753906 28.09796875 77.43507813 28.1484375 76.62890625 C28.22320312 75.61699219 28.29796875 74.60507813 28.375 73.5625 C28.44460938 72.55316406 28.51421875 71.54382813 28.5859375 70.50390625 C28.79089844 69.26447266 28.79089844 69.26447266 29 68 C31.86633795 66.56683102 34.37235501 66.86799639 37.5625 66.875 C39.32787109 66.87113281 39.32787109 66.87113281 41.12890625 66.8671875 C44 67 44 67 45 68 C45.68130315 74.60339972 45.20448356 81.09878556 42 87 C37.53140295 92.26978491 32.54492648 94.68334183 25.6328125 95.30078125 C10.503657 95.35132409 10.503657 95.35132409 4.125 89.25 C0.14245389 83.15904713 -0.28938421 77.2689946 -0.1953125 70.22265625 C-0.1924826 69.41130722 -0.18965271 68.59995819 -0.18673706 67.76402283 C-0.17562663 65.19669247 -0.15053971 62.62972322 -0.125 60.0625 C-0.11495836 58.31185403 -0.10583459 56.56120254 -0.09765625 54.81054688 C-0.07571734 50.54022746 -0.0412516 46.27017475 0 42 C-2.64 42 -5.28 42 -8 42 C-9.2063366 36.77254141 -8.75612577 32.23471686 -8 27 C-5.36 27 -2.72 27 0 27 C0 18.09 0 9.18 0 0 Z " fill="#07166F" transform="translate(255,74)"/>
<path d="M0 0 C2 1 2 1 2 1 Z " fill="#071362" transform="translate(215,169)"/>
<path d="" fill="#00A9F7" transform="translate(0,0)"/>
</svg>
