<svg width="88" height="78" viewBox="0 0 88 78" fill="none" xmlns="http://www.w3.org/2000/svg">
<path d="M3.75 34.05C5.61667 33.85 7.33333 33.7 8.9 33.6C10.5 33.4667 11.9833 33.4 13.35 33.4C14.1167 35.9 15 38.5167 16 41.25C17 43.9833 18.05 46.7333 19.15 49.5C20.2833 52.2667 21.4333 54.9333 22.6 57.5C24.3333 53.7667 25.9833 49.9333 27.55 46C29.15 42.0667 30.7167 37.8833 32.25 33.45C34.05 33.45 35.8333 33.5 37.6 33.6C39.3667 33.7 40.8667 33.8333 42.1 34C42.1 35.8333 42.1 38.0167 42.1 40.55C42.1333 43.05 42.15 45.75 42.15 48.65C42.1833 51.5167 42.2167 54.3833 42.25 57.25C42.2833 60.1167 42.3167 62.8167 42.35 65.35C42.3833 67.8833 42.4333 70.0667 42.5 71.9C41.7333 71.9333 40.8 71.9667 39.7 72C38.6 72.0333 37.45 72.05 36.25 72.05C35.05 72.0833 33.9333 72.1 32.9 72.1C33.0333 68.7333 33.1333 65.3667 33.2 62C33.2667 58.6 33.3167 55.3 33.35 52.1C33.4167 48.9 33.45 45.9333 33.45 43.2C32.05 47.1333 30.6 50.8833 29.1 54.45C27.6333 58.0167 26.0667 61.5333 24.4 65L16.7 65.45C14.8 61.3167 13.0333 57.3667 11.4 53.6C9.76667 49.8 8.31667 46.2667 7.05 43L8.15 72.1L2.5 71.9C2.6 70.1333 2.7 68.1167 2.8 65.85C2.9 63.5833 2.98333 61.2 3.05 58.7C3.15 56.2 3.23333 53.7167 3.3 51.25C3.4 48.75 3.48333 46.3833 3.55 44.15C3.61667 41.8833 3.66667 39.8833 3.7 38.15C3.73333 36.3833 3.75 35.0167 3.75 34.05Z" fill="#3B4BA0"/>
<path d="M63.4 74.25C61.5667 74.25 59.6667 74 57.7 73.5C55.7667 73 53.9167 72.3167 52.15 71.45C50.4167 70.55 48.95 69.5333 47.75 68.4C48.5167 67.3 49.3667 66.2 50.3 65.1C51.2333 63.9667 52.2667 62.85 53.4 61.75C54.7 63.15 56.1333 64.45 57.7 65.65C59.2667 66.8167 60.8333 67.7667 62.4 68.5C64 69.2333 65.4667 69.6 66.8 69.6C68 69.6 69.0667 69.2833 70 68.65C70.9667 67.9833 71.45 67.0333 71.45 65.8C71.45 64.6333 71 63.6 70.1 62.7C69.2 61.7667 68.0167 60.9167 66.55 60.15C65.1167 59.35 63.5833 58.5667 61.95 57.8C60.5167 57.1333 59.1 56.4333 57.7 55.7C56.3 54.9667 55.0167 54.1667 53.85 53.3C52.7167 52.4333 51.8 51.4667 51.1 50.4C50.4333 49.3 50.1 48.0667 50.1 46.7C50.1 45.3333 50.45 44 51.15 42.7C51.8833 41.4 52.9 40.2333 54.2 39.2C55.5 38.1333 57.0333 37.3 58.8 36.7C60.6 36.0667 62.5667 35.75 64.7 35.75C67.1333 35.75 69.5833 36.1667 72.05 37C74.55 37.8333 76.7167 39.0333 78.55 40.6C77.95 41.7333 77.1333 42.85 76.1 43.95C75.1 45.05 74.1167 45.9833 73.15 46.75C71.1167 44.8167 69.1 43.2 67.1 41.9C65.1 40.5667 63.2167 39.9 61.45 39.9C60.15 39.9 59.1667 40.2333 58.5 40.9C57.8667 41.5333 57.55 42.2167 57.55 42.95C57.55 43.75 57.9167 44.4833 58.65 45.15C59.3833 45.8167 60.35 46.4667 61.55 47.1C62.75 47.7333 64.0667 48.3833 65.5 49.05C67 49.75 68.5167 50.5 70.05 51.3C71.6167 52.1 73.05 53.0167 74.35 54.05C75.6833 55.05 76.75 56.2 77.55 57.5C78.35 58.8 78.75 60.2833 78.75 61.95C78.75 63.6167 78.3333 65.2 77.5 66.7C76.7 68.1667 75.5833 69.4667 74.15 70.6C72.75 71.7333 71.1167 72.6333 69.25 73.3C67.4167 73.9333 65.4667 74.25 63.4 74.25Z" fill="#3B4BA0"/>
<path d="M32.54 34.53V25.23H25.1V19.65H32.54V10.35H42.46V19.65H49.9V25.23H42.46V34.53H32.54Z" fill="white"/>
</svg>
