<svg width="16" height="16" viewBox="0 0 16 16" fill="none" xmlns="http://www.w3.org/2000/svg">
<path d="M12.8626 0.227929C12.6689 0.0347008 12.3549 0.0347008 12.1611 0.227929L10.5278 1.85723L14.2054 5.52572L15.8388 3.89642C16.0325 3.70319 16.0325 3.38991 15.8388 3.19668L12.8626 0.227929Z" fill="white"/>
<path d="M13.5039 6.22546L9.82626 2.55697L3.37786 8.98926H3.58331C3.85726 8.98926 4.07934 9.21078 4.07934 9.48405V9.97884H4.57537C4.84932 9.97884 5.0714 10.2004 5.0714 10.4736V10.9684H5.56743C5.84138 10.9684 6.06346 11.19 6.06346 11.4632V11.958H6.5595C6.83345 11.958 7.05553 12.1795 7.05553 12.4528V12.6578L13.5039 6.22546Z" fill="white"/>
<path d="M6.09487 13.616C6.07457 13.562 6.06346 13.5035 6.06346 13.4424V12.9476H5.56743C5.29348 12.9476 5.0714 12.7261 5.0714 12.4528V11.958H4.57537C4.30142 11.958 4.07934 11.7365 4.07934 11.4632V10.9684H3.58331C3.30936 10.9684 3.08727 10.7469 3.08727 10.4736V9.97884H2.59124C2.53 9.97884 2.47135 9.96777 2.41719 9.94752L2.24051 10.1238C2.19301 10.1711 2.15565 10.2277 2.1307 10.2899L0.146576 15.2378C0.0728825 15.4216 0.116074 15.6315 0.256383 15.7714C0.396692 15.9114 0.607117 15.9545 0.791352 15.881L5.75167 13.9018C5.81404 13.8769 5.87069 13.8396 5.9182 13.7923L6.09487 13.616Z" fill="white"/>
</svg>
